{"asset":{"generator":"Khronos glTF Spline I/O v0.0.1","version":"2.0"},"scenes":[{"nodes":[0]}],"nodes":[{"name":"solar_system","children":[1,2,3,4,5,6,7,8,9,10,11,12]},{"name":"Sphere 6","matrix":[-0.187303296707953,-0.0034412891100625586,0.9822961022886898,0,-0.03640807271660583,0.9993310811589345,-0.003441289110063469,0,-0.9816271834476644,-0.03640807271660663,-0.18730329670795698,0,-2026.1894290667233,-616.731812212322,-538.6321278652107,1],"mesh":0},{"name":"Torus 2","matrix":[1.7939925050704304,1.0954013489600039,1.4893134468692166,0,-12.128765307946491,1.3427698495413805,13.51718073535085,0,-0.16440139129676223,0.48890914274211866,-0.20153778194497762,0,1907.9728909297864,-450.16578650786596,-132.32116867331888,1],"mesh":1},{"name":"Sphere 5","matrix":[2.5216667733471945,0.6044396974160876,0.07387834794123121,0,-0.5576992591541329,2.206864332436913,-1.024053939683638,0,-0.31673901442105196,0.9264059204982307,2.3912769323761647,0,1892.2334257755776,-463.0566234885267,-126.4637977403197,1],"mesh":2},{"name":"Sphere 2","matrix":[0.9999999999999999,0,2.449293598294706e-16,0,0,1,0,0,-2.4492935982947064e-16,0,1,0,-582.7467560532497,-39.29577994348231,134.58445919821182,1],"mesh":3},{"name":"Sphere","matrix":[-0.5346592321969306,-0.729212400700668,0.4270699943698803,0,0.6626343087097175,-0.675397254006188,-0.32365772384068536,0,-0.5244571272730169,-0.10994464036667773,-0.8443085322956747,0,-2067.809095918469,-513.2692852356507,-2364.848500846871,1],"mesh":4},{"name":"Sphere 4","matrix":[1,0,0,0,0,1,0,0,0,0,1,0,-1301.960840396087,-482.1564666559628,-197.39419413307223,1],"mesh":5},{"name":"Sphere","matrix":[1.0000000000001568,0,2.4492935982950905e-16,0,0,1.0000000000001188,0,0,-2.449293598294784e-16,0,1.0000000000000315,0,3357.982929392751,458.5644921222782,-37.25419407996942,1],"mesh":6},{"name":"Sphere","matrix":[1.0000000000000002,0,2.449293598294707e-16,0,0,1,0,0,-2.449293598294707e-16,0,1.0000000000000002,0,3988.9438328853653,689.621478247519,-345.6321278652107,1],"mesh":7},{"name":"Sphere","matrix":[1,0,2.4492935982947064e-16,0,0,0.9489795918367347,0,0,-2.4492935982947064e-16,0,1,0,154.53197265673407,259.47857088634987,350.3220164498026,1],"mesh":8},{"name":"Sphere","matrix":[1.000000000000049,0,0,0,0,0.9848077530122036,0.17364817766692955,0,0,-0.17364817766693896,0.984807753012257,0,4735.711821502994,894.6777714037179,-648.1218203944713,1],"mesh":9},{"name":"Sphere","matrix":[1,0,2.4492935982947064e-16,0,0,1,0,0,-2.4492935982947064e-16,0,1,0,-1065.1037274271148,-285.9090379996619,31.297382548833653,1],"mesh":10},{"name":"Default Camera","camera":0,"translation":[-915.0088457063183,-165.51786565695417,-59.862704707422225],"rotation":[-0.016122341148517506,-0.7407876562084261,-0.017790931437401052,0.671310063445877],"children":[13]},{"name":"SceneLightDirectionalDefault","translation":[850000,1300000,1000000],"rotation":[-0.45895513091666534,0.1367267597249462,-0.25064115022945466,0.8413352451859125],"extensions":{"KHR_lights_punctual":{"light":0}}}],"cameras":[{"type":"orthographic","orthographic":{"xmag":1366,"ymag":745,"zfar":100000,"znear":-50000}}],"meshes":[{"primitives":[{"attributes":{"POSITION":1,"NORMAL":2,"TEXCOORD_0":3},"indices":0}]},{"primitives":[{"attributes":{"POSITION":5,"NORMAL":6,"TEXCOORD_0":7},"indices":4}]},{"primitives":[{"attributes":{"POSITION":9,"NORMAL":10,"TEXCOORD_0":11},"indices":8}]},{"primitives":[{"attributes":{"POSITION":13,"NORMAL":14,"TEXCOORD_0":15},"indices":12}]},{"primitives":[{"attributes":{"POSITION":17,"NORMAL":18,"TEXCOORD_0":19},"indices":16}]},{"primitives":[{"attributes":{"POSITION":21,"NORMAL":22,"TEXCOORD_0":23},"indices":20}]},{"primitives":[{"attributes":{"POSITION":25,"NORMAL":26,"TEXCOORD_0":27},"indices":24}]},{"primitives":[{"attributes":{"POSITION":29,"NORMAL":30,"TEXCOORD_0":31},"indices":28}]},{"primitives":[{"attributes":{"POSITION":33,"NORMAL":34,"TEXCOORD_0":35},"indices":32}]},{"primitives":[{"attributes":{"POSITION":37,"NORMAL":38,"TEXCOORD_0":39},"indices":36}]},{"primitives":[{"attributes":{"POSITION":41,"NORMAL":42,"TEXCOORD_0":43},"indices":40}]}],"buffers":[{"uri":"data:application/octet-stream;base64,","byteLength":183584},{"uri":"data:application/octet-stream;base64,","byteLength":230664},{"uri":"data:application/octet-stream;base64,","byteLength":183584},{"uri":"data:application/octet-stream;base64,","byteLength":183584},{"uri":"data:application/octet-stream;base64,","byteLength":328220},{"uri":"data:application/octet-stream;base64,","byteLength":183584},{"uri":"data:application/octet-stream;base64,","byteLength":183584},{"uri":"data:application/octet-stream;base64,","byteLength":183584},{"uri":"data:application/octet-stream;base64,","byteLength":183584},{"uri":"data:application/octet-stream;base64,","byteLength":183584},{"uri":"data:application/octet-stream;base64,","byteLength":183584}],"bufferViews":[{"buffer":0,"byteOffset":0,"byteLength":48384,"target":34963},{"buffer":0,"byteOffset":48384,"byteLength":50700,"target":34962},{"buffer":0,"byteOffset":99084,"byteLength":50700,"target":34962},{"buffer":0,"byteOffset":149784,"byteLength":33800,"target":34962},{"buffer":1,"byteOffset":0,"byteLength":62184,"target":34963},{"buffer":1,"byteOffset":62184,"byteLength":63180,"target":34962},{"buffer":1,"byteOffset":125364,"byteLength":63180,"target":34962},{"buffer":1,"byteOffset":188544,"byteLength":42120,"target":34962},{"buffer":2,"byteOffset":0,"byteLength":48384,"target":34963},{"buffer":2,"byteOffset":48384,"byteLength":50700,"target":34962},{"buffer":2,"byteOffset":99084,"byteLength":50700,"target":34962},{"buffer":2,"byteOffset":149784,"byteLength":33800,"target":34962},{"buffer":3,"byteOffset":0,"byteLength":48384,"target":34963},{"buffer":3,"byteOffset":48384,"byteLength":50700,"target":34962},{"buffer":3,"byteOffset":99084,"byteLength":50700,"target":34962},{"buffer":3,"byteOffset":149784,"byteLength":33800,"target":34962},{"buffer":4,"byteOffset":0,"byteLength":86940,"target":34963},{"buffer":4,"byteOffset":86940,"byteLength":90480,"target":34962},{"buffer":4,"byteOffset":177420,"byteLength":90480,"target":34962},{"buffer":4,"byteOffset":267900,"byteLength":60320,"target":34962},{"buffer":5,"byteOffset":0,"byteLength":48384,"target":34963},{"buffer":5,"byteOffset":48384,"byteLength":50700,"target":34962},{"buffer":5,"byteOffset":99084,"byteLength":50700,"target":34962},{"buffer":5,"byteOffset":149784,"byteLength":33800,"target":34962},{"buffer":6,"byteOffset":0,"byteLength":48384,"target":34963},{"buffer":6,"byteOffset":48384,"byteLength":50700,"target":34962},{"buffer":6,"byteOffset":99084,"byteLength":50700,"target":34962},{"buffer":6,"byteOffset":149784,"byteLength":33800,"target":34962},{"buffer":7,"byteOffset":0,"byteLength":48384,"target":34963},{"buffer":7,"byteOffset":48384,"byteLength":50700,"target":34962},{"buffer":7,"byteOffset":99084,"byteLength":50700,"target":34962},{"buffer":7,"byteOffset":149784,"byteLength":33800,"target":34962},{"buffer":8,"byteOffset":0,"byteLength":48384,"target":34963},{"buffer":8,"byteOffset":48384,"byteLength":50700,"target":34962},{"buffer":8,"byteOffset":99084,"byteLength":50700,"target":34962},{"buffer":8,"byteOffset":149784,"byteLength":33800,"target":34962},{"buffer":9,"byteOffset":0,"byteLength":48384,"target":34963},{"buffer":9,"byteOffset":48384,"byteLength":50700,"target":34962},{"buffer":9,"byteOffset":99084,"byteLength":50700,"target":34962},{"buffer":9,"byteOffset":149784,"byteLength":33800,"target":34962},{"buffer":10,"byteOffset":0,"byteLength":48384,"target":34963},{"buffer":10,"byteOffset":48384,"byteLength":50700,"target":34962},{"buffer":10,"byteOffset":99084,"byteLength":50700,"target":34962},{"buffer":10,"byteOffset":149784,"byteLength":33800,"target":34962}],"accessors":[{"bufferView":0,"byteOffset":0,"componentType":5123,"count":24192,"type":"SCALAR","min":[0],"max":[4224]},{"bufferView":1,"byteOffset":0,"componentType":5126,"count":4225,"type":"VEC3","min":[-54,-54,-54],"max":[54,54,54]},{"bufferView":2,"byteOffset":0,"componentType":5126,"count":4225,"type":"VEC3","min":[-1,-1,-1],"max":[1,1,1]},{"bufferView":3,"byteOffset":0,"componentType":5126,"count":4225,"type":"VEC2","min":[-0.0078125,0],"max":[1.0078125,1]},{"bufferView":4,"byteOffset":0,"componentType":5123,"count":31092,"type":"SCALAR","min":[0],"max":[5264]},{"bufferView":5,"byteOffset":0,"componentType":5126,"count":5265,"type":"VEC3","min":[-275,-42,-51.0004997253418],"max":[275,42,51.0004997253418]},{"bufferView":6,"byteOffset":0,"componentType":5126,"count":5265,"type":"VEC3","min":[-1,-1,-1],"max":[1,1,1]},{"bufferView":7,"byteOffset":0,"componentType":5126,"count":5265,"type":"VEC2","min":[0,0],"max":[1,1]},{"bufferView":8,"byteOffset":0,"componentType":5123,"count":24192,"type":"SCALAR","min":[0],"max":[4224]},{"bufferView":9,"byteOffset":0,"componentType":5126,"count":4225,"type":"VEC3","min":[-136,-136,-120.5],"max":[136,136,120.5]},{"bufferView":10,"byteOffset":0,"componentType":5126,"count":4225,"type":"VEC3","min":[-1,-1,-1],"max":[1,1,1]},{"bufferView":11,"byteOffset":0,"componentType":5126,"count":4225,"type":"VEC2","min":[-0.0078125,0],"max":[1.0078125,1]},{"bufferView":12,"byteOffset":0,"componentType":5123,"count":24192,"type":"SCALAR","min":[0],"max":[4224]},{"bufferView":13,"byteOffset":0,"componentType":5126,"count":4225,"type":"VEC3","min":[-72.5,-73,-70.5],"max":[72.5,73,70.5]},{"bufferView":14,"byteOffset":0,"componentType":5126,"count":4225,"type":"VEC3","min":[-1,-1,-1],"max":[1,1,1]},{"bufferView":15,"byteOffset":0,"componentType":5126,"count":4225,"type":"VEC2","min":[-0.0078125,0],"max":[1.0078125,1]},{"bufferView":16,"byteOffset":0,"componentType":5123,"count":43470,"type":"SCALAR","min":[0],"max":[7539]},{"bufferView":17,"byteOffset":0,"componentType":5126,"count":7540,"type":"VEC3","min":[-1472.5,-1428.5,-1417.3677978515625],"max":[1471.9505615234375,1428.5,1417.3677978515625]},{"bufferView":18,"byteOffset":0,"componentType":5126,"count":7540,"type":"VEC3","min":[-1,-1,-0.9999135732650757],"max":[0.9995973706245422,1,0.9999135732650757]},{"bufferView":19,"byteOffset":0,"componentType":5126,"count":7540,"type":"VEC2","min":[-0.004347825888544321,0],"max":[1.004347801208496,1]},{"bufferView":20,"byteOffset":0,"componentType":5123,"count":24192,"type":"SCALAR","min":[0],"max":[4224]},{"bufferView":21,"byteOffset":0,"componentType":5126,"count":4225,"type":"VEC3","min":[-63,-63,-63],"max":[63,63,63]},{"bufferView":22,"byteOffset":0,"componentType":5126,"count":4225,"type":"VEC3","min":[-1,-1,-1],"max":[1,1,1]},{"bufferView":23,"byteOffset":0,"componentType":5126,"count":4225,"type":"VEC2","min":[-0.0078125,0],"max":[1.0078125,1]},{"bufferView":24,"byteOffset":0,"componentType":5123,"count":24192,"type":"SCALAR","min":[0],"max":[4224]},{"bufferView":25,"byteOffset":0,"componentType":5126,"count":4225,"type":"VEC3","min":[-160,-138,-144],"max":[160,138,144]},{"bufferView":26,"byteOffset":0,"componentType":5126,"count":4225,"type":"VEC3","min":[-1,-1,-1],"max":[1,1,1]},{"bufferView":27,"byteOffset":0,"componentType":5126,"count":4225,"type":"VEC2","min":[-0.0078125,0],"max":[1.0078125,1]},{"bufferView":28,"byteOffset":0,"componentType":5123,"count":24192,"type":"SCALAR","min":[0],"max":[4224]},{"bufferView":29,"byteOffset":0,"componentType":5126,"count":4225,"type":"VEC3","min":[-193,-193,-193],"max":[193,193,193]},{"bufferView":30,"byteOffset":0,"componentType":5126,"count":4225,"type":"VEC3","min":[-1,-1,-1],"max":[1,1,1]},{"bufferView":31,"byteOffset":0,"componentType":5126,"count":4225,"type":"VEC2","min":[-0.0078125,0],"max":[1.0078125,1]},{"bufferView":32,"byteOffset":0,"componentType":5123,"count":24192,"type":"SCALAR","min":[0],"max":[4224]},{"bufferView":33,"byteOffset":0,"componentType":5126,"count":4225,"type":"VEC3","min":[-501.5,-637,-537],"max":[501.5,637,537]},{"bufferView":34,"byteOffset":0,"componentType":5126,"count":4225,"type":"VEC3","min":[-1,-1,-1],"max":[1,1,1]},{"bufferView":35,"byteOffset":0,"componentType":5126,"count":4225,"type":"VEC2","min":[-0.0078125,0],"max":[1.0078125,1]},{"bufferView":36,"byteOffset":0,"componentType":5123,"count":24192,"type":"SCALAR","min":[0],"max":[4224]},{"bufferView":37,"byteOffset":0,"componentType":5126,"count":4225,"type":"VEC3","min":[-191.5,-171,-171],"max":[191.5,171,171]},{"bufferView":38,"byteOffset":0,"componentType":5126,"count":4225,"type":"VEC3","min":[-1,-1,-1],"max":[1,1,1]},{"bufferView":39,"byteOffset":0,"componentType":5126,"count":4225,"type":"VEC2","min":[-0.0078125,0],"max":[1.0078125,1]},{"bufferView":40,"byteOffset":0,"componentType":5123,"count":24192,"type":"SCALAR","min":[0],"max":[4224]},{"bufferView":41,"byteOffset":0,"componentType":5126,"count":4225,"type":"VEC3","min":[-100,-110,-101],"max":[100,110,101]},{"bufferView":42,"byteOffset":0,"componentType":5126,"count":4225,"type":"VEC3","min":[-1,-1,-1],"max":[1,1,1]},{"bufferView":43,"byteOffset":0,"componentType":5126,"count":4225,"type":"VEC2","min":[-0.0078125,0],"max":[1.0078125,1]}],"extensions":{"KHR_lights_punctual":{"lights":[{"type":"directional","name":"SceneLightDirectionalDefault","color":[1,1,1],"intensity":10}]}},"extensionsUsed":["KHR_lights_punctual"]}